<svg xmlns="http://www.w3.org/2000/svg" version="1.1" xmlns:xlink="http://www.w3.org/1999/xlink" xmlns:svgjs="http://svgjs.com/svgjs" width="512" height="512" x="0" y="0" viewBox="0 0 410 410.572" style="enable-background:new 0 0 512 512" xml:space="preserve" class=""><g><path fill="#fce8cb" d="M15.855 263.309v135.71a8.55 8.55 0 0 0 8.551 8.551h124.676a8.55 8.55 0 0 0 8.55-8.55V263.309zm0 0" data-original="#fce8cb"></path><path fill="#3a312a" d="M157.633 260.309H15.855c-1.656 0-3 1.34-3 3v135.71c0 6.372 5.184 11.551 11.551 11.551h124.672c6.371 0 11.555-5.18 11.555-11.55V263.309c0-1.66-1.34-3-3-3zm-3 138.71a5.557 5.557 0 0 1-5.551 5.551H24.406a5.557 5.557 0 0 1-5.55-5.55V266.309h135.777zm0 0" data-original="#3a312a"></path><path fill="#d7e057" d="M15.855 302.082h141.778v66.715H15.855zm0 0" data-original="#d7e057"></path><path fill="#3a312a" d="M157.633 299.082H15.855a3 3 0 0 0-3 3v66.711c0 1.66 1.344 3 3 3h141.778c1.66 0 3-1.34 3-3v-66.711c0-1.656-1.34-3-3-3zm-3 66.715H18.855v-60.711h135.778zm0 0" data-original="#3a312a"></path><path fill="#87796f" d="M165.297 231.934H8.195a4.908 4.908 0 0 0-4.91 4.906v22.074c0 2.711 2.2 4.906 4.91 4.906h157.102a4.905 4.905 0 0 0 4.906-4.906V236.84a4.905 4.905 0 0 0-4.906-4.906zm0 0" data-original="#87796f"></path><path fill="#3a312a" d="M165.297 228.934H80.09a3 3 0 0 0 0 6h85.207c1.05 0 1.906.855 1.906 1.906v22.074c0 1.05-.855 1.906-1.906 1.906H8.195a1.909 1.909 0 0 1-1.906-1.906V236.84c0-1.05.856-1.906 1.906-1.906h45.672a3 3 0 0 0 0-6H8.195c-4.36 0-7.91 3.543-7.91 7.906v22.074c0 4.36 3.547 7.906 7.91 7.906h157.098c4.36 0 7.91-3.543 7.91-7.906V236.84c0-4.36-3.547-7.906-7.906-7.906zm0 0" data-original="#3a312a"></path><path fill="#87796f" d="M127 3h60.281v16.285H127zm0 0" data-original="#87796f"></path><path fill="#3a312a" d="M187.281 0H127a3 3 0 0 0-3 3v16.285c0 1.66 1.344 3 3 3h60.281c1.66 0 3-1.34 3-3V3c0-1.656-1.34-3-3-3zm-3 16.285H130V6h54.281zm0 0" data-original="#3a312a"></path><path fill="#87796f" d="M159.734 19.285h20.043v60.75h-20.043zm0 0" data-original="#87796f"></path><path fill="#3a312a" d="M179.777 16.285h-20.043a3 3 0 0 0-3 3v60.75c0 1.66 1.344 3 3 3h20.043c1.66 0 3-1.34 3-3v-60.75c0-1.656-1.34-3-3-3zm-3 60.75h-14.043v-54.75h14.043zm0 0" data-original="#3a312a"></path><path fill="#f16c7a" d="M205.95 106.285h-71.497c-6.543 0-11.848 5.305-11.848 11.848v277.59c0 6.543 5.305 11.847 11.848 11.847h71.496c6.543 0 11.848-5.304 11.848-11.847v-277.59c0-6.543-5.305-11.848-11.848-11.848zm0 0" data-original="#f16c7a"></path><path fill="#3a312a" d="M205.95 103.285h-71.497c-8.187 0-14.848 6.664-14.848 14.848v34.926a3 3 0 0 0 6 0v-34.926c0-4.875 3.97-8.848 8.848-8.848h71.496c4.88 0 8.848 3.973 8.848 8.848v277.59c0 4.879-3.969 8.847-8.848 8.847h-71.496c-4.879 0-8.848-3.968-8.848-8.847V180.18a3 3 0 0 0-6 0v215.543c0 8.187 6.665 14.847 14.848 14.847h71.496c8.188 0 14.848-6.664 14.848-14.847v-277.59c.004-8.184-6.66-14.848-14.848-14.848zm0 0" data-original="#3a312a"></path><path fill="#fce8cb" d="M194.004 73.145h-47.602c-5.718 0-10.379 4.64-10.379 10.382v22.758h68.36V83.527c0-5.742-4.66-10.382-10.38-10.382zm0 0" data-original="#fce8cb"></path><path fill="#3a312a" d="M194.004 70.145h-47.602c-7.375 0-13.379 6.003-13.379 13.382v22.758c0 1.66 1.344 3 3 3h68.36c1.66 0 3-1.34 3-3V83.527c0-7.379-6-13.382-13.38-13.382zm7.379 33.14h-62.36V83.527c0-4.07 3.313-7.382 7.38-7.382h47.6c4.071 0 7.38 3.312 7.38 7.382zm0 0" data-original="#3a312a"></path><path fill="#fce8cb" d="M122.605 219.953h95.192v64.625h-95.192zm0 0" data-original="#fce8cb"></path><path fill="#3a312a" d="M217.8 216.953h-95.195c-1.656 0-3 1.34-3 3v64.625a3 3 0 0 0 3 3h95.196a3 3 0 0 0 3-3v-64.625a3 3 0 0 0-3-3zm-3 64.625h-89.195v-58.625h89.196zm0 0" data-original="#3a312a"></path><path fill="#87796f" d="M212.375 380.664v16.453c0 5.774 4.68 10.453 10.453 10.453h68.426c5.773 0 10.453-4.68 10.453-10.453v-16.453zm0 0" data-original="#87796f"></path><path fill="#3a312a" d="M301.707 377.664h-89.332c-1.66 0-3 1.344-3 3v16.453c0 7.418 6.035 13.453 13.453 13.453h68.426c7.418 0 13.453-6.035 13.453-13.453v-16.453a3 3 0 0 0-3-3zm-3 19.453c0 4.11-3.344 7.453-7.453 7.453h-68.426c-4.11 0-7.453-3.343-7.453-7.453v-13.453h83.336v13.453zm0 0" data-original="#3a312a"></path><path fill="#87796f" d="M212.375 337.176h89.332v43.488h-89.332zm0 0" data-original="#87796f"></path><path fill="#3a312a" d="M301.707 334.176h-89.332c-1.66 0-3 1.344-3 3v43.488c0 1.66 1.34 3 3 3h89.332c1.66 0 3-1.34 3-3v-43.488a3 3 0 0 0-3-3zm-3 43.488h-83.332v-37.488h83.332zm0 0" data-original="#3a312a"></path><path fill="#8ac6dd" d="M306.719 90h-99.34c-5.723 0-10.262 4.82-9.922 10.54l.582 10.038 14.336 226.602h89.332l14.25-226.602.66-9.957C317.02 94.88 312.457 90 306.72 90zm0 0" data-original="#8ac6dd"></path><path fill="#3a312a" d="M316.164 91.113A12.946 12.946 0 0 0 306.72 87h-99.34c-3.602 0-6.941 1.445-9.414 4.063a13.022 13.022 0 0 0-3.5 9.652l.582 10.055 14.336 226.601a3.001 3.001 0 0 0 2.996 2.809h89.332a3.001 3.001 0 0 0 2.996-2.813l14.25-226.59.66-9.96a12.992 12.992 0 0 0-3.453-9.704zm-2.539 9.309-.664 9.969-14.074 223.793h-83.7l-14.156-223.778-.582-10.043a6.91 6.91 0 0 1 1.88-5.183 6.863 6.863 0 0 1 5.046-2.176h99.34a6.85 6.85 0 0 1 5.058 2.203 6.844 6.844 0 0 1 1.848 5.207v.008zm0 0" data-original="#3a312a"></path><path fill="#87796f" d="M306.719 90h-99.34c-5.723 0-10.262 4.82-9.922 10.54l.582 10.038h117.918l.66-9.957C317.02 94.88 312.457 90 306.72 90zm0 0" data-original="#87796f"></path><path fill="#3a312a" d="M316.164 91.113A12.946 12.946 0 0 0 306.72 87h-99.34c-3.602 0-6.941 1.445-9.414 4.063a13.022 13.022 0 0 0-3.5 9.652l.578 10.039a3.004 3.004 0 0 0 2.996 2.828h117.922a3.002 3.002 0 0 0 2.992-2.8l.66-9.962a12.976 12.976 0 0 0-3.449-9.707zm-2.539 9.309-.477 7.156H200.871l-.418-7.215c-.113-1.933.555-3.777 1.879-5.183s3.117-2.18 5.047-2.18h99.34c1.933 0 3.734.785 5.058 2.207a6.84 6.84 0 0 1 1.848 5.203zm0 0" data-original="#3a312a"></path><path fill="#fce8cb" d="M270.875 180.332c-18.43-7.633-39.563 1.117-47.195 19.547-7.633 18.43 1.117 39.562 19.547 47.195 18.43 7.633 39.562-1.117 47.195-19.547 7.633-18.433-1.117-39.562-19.547-47.195zm0 0" data-original="#fce8cb"></path><path fill="#3a312a" d="M257.04 174.586c-21.571 0-39.118 17.547-39.118 39.117 0 21.574 17.547 39.121 39.117 39.121 21.574 0 39.121-17.547 39.121-39.12 0-21.571-17.547-39.118-39.12-39.118zm0 72.238c-18.263 0-33.118-14.86-33.118-33.12s14.855-33.118 33.117-33.118c18.262 0 33.121 14.855 33.121 33.117s-14.855 33.121-33.12 33.121zm0 0" data-original="#3a312a"></path><path fill="#87796f" d="M360.836 170.797h-61.223a2.282 2.282 0 0 0-2.285 2.281v20.988a2.285 2.285 0 0 0 2.285 2.282h61.223a2.284 2.284 0 0 0 2.281-2.282v-20.988a2.281 2.281 0 0 0-2.281-2.281zm0 0" data-original="#87796f"></path><path fill="#3a312a" d="M360.836 167.797h-61.223a5.288 5.288 0 0 0-5.285 5.281v20.988a5.288 5.288 0 0 0 5.285 5.282h61.223a5.29 5.29 0 0 0 5.281-5.282v-20.988a5.287 5.287 0 0 0-5.281-5.281zm-.719 25.55h-59.785v-19.55h59.785zm0 0" data-original="#3a312a"></path><path fill="#f16c7a" d="m368.215 252.848-.95-1.442a79.548 79.548 0 0 1-13.117-43.761v-11.293h-47.851v11.293a79.539 79.539 0 0 1-13.117 43.761l-.946 1.442a79.552 79.552 0 0 0-13.12 43.761V394c0 7.496 6.077 13.57 13.574 13.57h75.074c7.496 0 13.574-6.074 13.574-13.57v-97.39a79.574 79.574 0 0 0-13.121-43.762zm0 0" data-original="#f16c7a"></path><path fill="#3a312a" d="m370.719 251.195-.946-1.437a76.361 76.361 0 0 1-12.625-42.113v-11.297a3 3 0 0 0-3-3h-47.847c-1.66 0-3 1.343-3 3v11.297a76.361 76.361 0 0 1-12.625 42.113l-.95 1.437a82.332 82.332 0 0 0-13.613 45.414V394c0 9.137 7.434 16.57 16.575 16.57h75.074c9.136 0 16.574-7.433 16.574-16.57v-97.39a82.358 82.358 0 0 0-13.617-45.415zm7.613 142.801c0 5.832-4.742 10.574-10.57 10.574h-75.078c-5.829 0-10.57-4.746-10.57-10.574V296.61a76.342 76.342 0 0 1 12.624-42.117l.946-1.437a82.322 82.322 0 0 0 13.613-45.414v-8.293h41.848v8.293a82.326 82.326 0 0 0 13.617 45.414l.945 1.437a76.36 76.36 0 0 1 12.621 42.117v97.387zm0 0" data-original="#3a312a"></path><path fill="#fce8cb" d="M279.113 303.285h102.219v54.363H279.113zm0 0" data-original="#fce8cb"></path><path fill="#3a312a" d="M381.332 300.285H279.113c-1.656 0-3 1.34-3 3v54.363a3 3 0 0 0 3 3h102.219a3 3 0 0 0 3-3v-54.363c0-1.66-1.344-3-3-3zm-3 54.363h-96.219v-48.363h96.219zm0 0" data-original="#3a312a"></path><path fill="#d7e057" d="M76.18 119.07c-1.95 23.13-26.047 26.782-26.047 26.782 20.691.972 25.847 28.117 25.847 28.117.446-19.356 26.645-28.406 26.645-28.406C82.996 144.39 76.18 119.07 76.18 119.07zm0 0" data-original="#d7e057"></path><path fill="#3a312a" d="M102.805 142.57c-17.207-1.027-23.664-24.047-23.727-24.28-.379-1.403-1.695-2.317-3.168-2.204a2.997 2.997 0 0 0-2.715 2.734c-1.722 20.43-22.632 23.926-23.511 24.067a3.002 3.002 0 0 0 .309 5.965c18.054.847 22.995 25.433 23.042 25.683a3.002 3.002 0 0 0 3.2 2.422 2.998 2.998 0 0 0 2.745-2.918c.391-17.016 24.383-25.555 24.63-25.637a3.009 3.009 0 0 0 1.988-3.246 3.007 3.007 0 0 0-2.793-2.586zm-27.133 20.692c-2.715-6.258-7.418-13.813-15.176-17.75 5.863-2.809 12.82-7.828 16.406-16.547 3.102 6.144 8.399 13.762 16.664 17.445-6.011 3.278-13.84 8.809-17.894 16.852zm0 0" data-original="#3a312a"></path><path fill="#d7e057" d="M32.785 153.035c-1.379 16.356-18.426 18.938-18.426 18.938 14.637.691 18.286 19.89 18.286 19.89.312-13.687 18.843-20.09 18.843-20.09-13.883-.832-18.703-18.738-18.703-18.738zm0 0" data-original="#d7e057"></path><path fill="#3a312a" d="M51.664 168.777c-11.531-.691-15.941-16.37-15.984-16.53a2.992 2.992 0 0 0-3.164-2.204 3.001 3.001 0 0 0-2.72 2.738c-1.16 13.742-15.292 16.133-15.886 16.227a2.997 2.997 0 0 0-2.543 3.12 2.999 2.999 0 0 0 2.856 2.845c12.07.566 15.445 17.289 15.476 17.453a3.002 3.002 0 0 0 2.946 2.437c.082 0 .164 0 .25-.008a3.002 3.002 0 0 0 2.75-2.921c.261-11.418 16.664-17.27 16.824-17.325a3 3 0 0 0-.805-5.832zm-19.168 13.59c-1.848-3.77-4.68-7.894-8.89-10.558 3.71-2.082 7.39-5.262 9.742-9.832 2.113 3.746 5.304 7.906 9.879 10.445-3.7 2.2-7.977 5.48-10.73 9.945zm0 0" data-original="#3a312a"></path><path fill="#d7e057" d="M32.785 99.719C31.406 116.074 14.36 118.66 14.36 118.66c14.637.688 18.286 19.887 18.286 19.887.312-13.688 18.843-20.09 18.843-20.09-13.883-.832-18.703-18.738-18.703-18.738zm0 0" data-original="#d7e057"></path><path fill="#3a312a" d="M51.664 115.46c-11.476-.683-15.902-16.222-15.984-16.522a2.999 2.999 0 0 0-3.164-2.208 2.998 2.998 0 0 0-2.723 2.735c-1.156 13.742-15.29 16.133-15.883 16.226a3 3 0 0 0 .309 5.965c12.07.567 15.445 17.29 15.476 17.453a3.002 3.002 0 0 0 2.946 2.438c.082 0 .164 0 .25-.008a3.002 3.002 0 0 0 2.75-2.922c.261-11.418 16.664-17.27 16.824-17.324a3.005 3.005 0 0 0 1.992-3.246 2.993 2.993 0 0 0-2.793-2.586zm-19.168 13.59c-1.848-3.769-4.68-7.894-8.89-10.558 3.71-2.082 7.39-5.262 9.742-9.836 2.113 3.75 5.304 7.91 9.879 10.45-3.7 2.203-7.977 5.48-10.73 9.945zm0 0" data-original="#3a312a"></path><path fill="#ccae8b" d="M119.61 395.727v-23.942h-19.301v23.942c0 3.32 1.12 6.378 2.96 8.84h19.282a14.717 14.717 0 0 1-2.942-8.84zM100.309 266.824h19.3v32.262h-19.3zm0 0" data-original="#ccae8b"></path><path fill="#b9bc39" d="M100.309 305.086h19.3v60.7h-19.3zm0 0" data-original="#b9bc39"></path><path fill="#6b5b51" d="M100.309 234.926h19.3v25.898h-19.3zm0 0" data-original="#6b5b51"></path><path fill="#ce4e61" d="M195.05 110.766v-.02l-.1-1.46H177.69l.079 1.46v.02l6.718 106.18h17.282zM209.371 397.125v-59.84l-3.14-49.7h-17.282l3.14 49.7v59.84c0 2.14.54 4.18 1.442 5.98a8.798 8.798 0 0 1-4.86 1.461h17.278c1.801 0 3.461-.539 4.84-1.46a13.394 13.394 0 0 1-1.418-5.981zm0 0" data-original="#ce4e61"></path><path fill="#ccae8b" d="M194.012 76.145H176.73c4.06 0 7.38 3.3 7.38 7.382v4.957a13.01 13.01 0 0 0-3.419 2.582 12.906 12.906 0 0 0-3.5 9.641l.137 2.578h17.281l-.14-2.578a12.937 12.937 0 0 1 3.5-9.64 12.363 12.363 0 0 1 3.422-2.583v-4.957c0-4.082-3.32-7.382-7.38-7.382zM202.148 222.945h-17.277l3.7 58.64h17.28zm0 0" data-original="#ccae8b"></path><path fill="#6b5b51" d="M276.11 394.008v-10.344H261.19v10.344c0 4 1.418 7.699 3.82 10.558h14.919a16.497 16.497 0 0 1-3.82-10.558zM261.191 340.188h14.918v37.476h-14.918zm0 0" data-original="#6b5b51"></path><path fill="#68a8bc" d="M299.61 167.805h9.742l3.418-54.22h-14.942l-3.398 54.22h-9.739a5.275 5.275 0 0 0-5.28 5.28v8.54c10.12 7.082 16.76 18.82 16.76 32.082 0 14.117-7.523 26.5-18.76 33.398a52.775 52.775 0 0 1-1.661 2.66l-.96 1.423a82.412 82.412 0 0 0-13.599 45.417v37.582h14.918v-37.582a82.403 82.403 0 0 1 13.621-45.418l.942-1.421a76.408 76.408 0 0 0 12.617-42.121v-8.297h-3.68c-2.898 0-5.28-2.364-5.28-5.282v-20.98a5.29 5.29 0 0 1 5.28-5.281zm0 0" data-original="#68a8bc"></path><path fill="#6b5b51" d="M311.77 95.207a6.834 6.834 0 0 0-5.06-2.2h-14.92c1.94 0 3.741.778 5.062 2.2a6.84 6.84 0 0 1 1.84 5.2v.019l-.481 7.16h14.937l.48-7.16v-.02a6.767 6.767 0 0 0-1.858-5.199zM343.531 173.805h16.578v19.543h-16.578zm0 0" data-original="#6b5b51"></path><path fill="#ce4e61" d="M361.75 360.645v33.363c0 5.816-4.738 10.558-10.559 10.558h16.579c5.82 0 10.558-4.742 10.558-10.558v-33.363zM365.71 254.484l-.94-1.418a82.336 82.336 0 0 1-13.622-45.421v-8.297H334.57v8.297c0 16.18 4.7 31.882 13.621 45.421l.938 1.418a76.39 76.39 0 0 1 12.621 42.121v3.68h16.578v-3.68c0-15-4.36-29.578-12.617-42.12zm0 0" data-original="#ce4e61"></path><path fill="#ccae8b" d="M361.75 306.285h16.578v48.36H361.75zm0 0" data-original="#ccae8b"></path></g></svg>