<svg xmlns="http://www.w3.org/2000/svg" version="1.1" xmlns:xlink="http://www.w3.org/1999/xlink" xmlns:svgjs="http://svgjs.com/svgjs" width="512" height="512" x="0" y="0" viewBox="0 0 512 512" style="enable-background:new 0 0 512 512" xml:space="preserve" class=""><g><path d="M310.954 326.662a14.062 14.062 0 0 0-19.887 0l-51.04 51.04a2.826 2.826 0 0 1-3.58.333A389.483 389.483 0 0 1 134.032 275.62a2.826 2.826 0 0 1 .333-3.581l51.035-51.032a14.063 14.063 0 0 0 .006-19.894l-91.379-91.377a14.078 14.078 0 0 0-19.888 0l-57.856 57.856A55.367 55.367 0 0 0 .92 215.749C12.149 283.3 49.092 351.267 104.947 407.12c55.653 55.649 123.335 92.615 190.593 104.091a55.362 55.362 0 0 0 48.36-15.329l58.191-58.192a14.062 14.062 0 0 0 0-19.887zm15.305 151.577a30.312 30.312 0 0 1-26.522 8.375C237.529 476 174.617 441.5 122.59 389.477c-52.2-52.2-86.674-115.355-97.056-177.819a30.365 30.365 0 0 1 8.393-26.423l50.156-50.157 75.978 75.978-43.339 43.344a27.809 27.809 0 0 0-3.342 35.228 414.442 414.442 0 0 0 109.063 109.058 27.808 27.808 0 0 0 35.227-3.341l43.34-43.339 75.741 75.741zM420.965 266.011v-81.505a12.476 12.476 0 0 0-24.952 0v26.508H355.07l27.192-74.209a12.476 12.476 0 1 0-23.429-8.585l-29.189 79.661-.164.478a21.143 21.143 0 0 0 20.131 27.607h46.4v30.045a12.476 12.476 0 0 0 24.952 0z" fill="#232eff" data-original="#000000" opacity="1"></path><path d="M255.488 219.514c-17.064 14.126-31.815 26.339-36.09 39.611a14.62 14.62 0 0 0 13.827 19.362h72.822a12.476 12.476 0 0 0 0-24.952h-51.864c5.365-4.99 11.781-10.3 17.216-14.8 21.587-17.871 43.909-36.35 43.909-57.372V165.91a45.874 45.874 0 0 0-91.747 0v3.66a12.476 12.476 0 0 0 24.951 0v-3.66a20.922 20.922 0 1 1 41.844 0v15.452c0 9.286-20.983 26.657-34.868 38.152z" fill="#232eff" data-original="#000000" opacity="1"></path><path d="M448.544 63.286A216.06 216.06 0 0 0 130.488 76.9a12.475 12.475 0 1 0 19.078 16.08 190.823 190.823 0 0 1 146.191-68.029c105.385 0 191.122 85.737 191.122 191.122a190.354 190.354 0 0 1-71.49 149.042 12.475 12.475 0 1 0 15.629 19.448 216.061 216.061 0 0 0 17.526-321.277z" fill="#232eff" data-original="#000000" opacity="1"></path></g></svg>