<svg xmlns="http://www.w3.org/2000/svg" version="1.1" xmlns:xlink="http://www.w3.org/1999/xlink" xmlns:svgjs="http://svgjs.com/svgjs" width="512" height="512" x="0" y="0" viewBox="0 0 64 64" style="enable-background:new 0 0 512 512" xml:space="preserve" class=""><g><path d="m40.993 27 1.151-2.667a7.08 7.08 0 0 0-.43-6.445 7.08 7.08 0 0 0-3.136-2.8l-2.791-1.271A9.089 9.089 0 0 0 32.022 13a9.091 9.091 0 0 0-5.452 1.817l-1.67 1.291a5.227 5.227 0 0 0-3.426 2.431 5.226 5.226 0 0 0-.193 5.028L22.993 27H23l2-4 1.6 1.2A9 9 0 0 0 32 26a9 9 0 0 0 5.4-1.8L39 23l2 4Z" style="" fill="#ffffff" data-original="#f4b2b0" class="" opacity="0"></path><path d="M59.922 35.05 51 31.333v-2.671A9.95 9.95 0 0 0 55.8 22h.2a3 3 0 0 0 .081-6l.981-2.272a8.08 8.08 0 0 0-4.07-10.552L50.2 1.907a10.252 10.252 0 0 0-10.233 1.112l-1.555 1.174a6.256 6.256 0 0 0-3.8 2.831 6.191 6.191 0 0 0-.552 5.216 10.357 10.357 0 0 0-4.561.11 8.049 8.049 0 0 0-4.507-9.173L22.2 1.907a10.253 10.253 0 0 0-10.233 1.112l-1.555 1.174a6.229 6.229 0 0 0-4.03 8.821L7.875 16A3 3 0 0 0 8 22h.2a9.97 9.97 0 0 0 4.8 6.659v2.674L4.077 35.05A4.988 4.988 0 0 0 1 39.665V53a1 1 0 0 0 1 1h7v8a1 1 0 0 0 1 1h44a1 1 0 0 0 1-1v-8h7a1 1 0 0 0 1-1V39.665a4.986 4.986 0 0 0-3.078-4.615ZM35.373 14.727 38.163 16a6.08 6.08 0 0 1 3.062 7.939l-.3.687-1.035-2.071a1 1 0 0 0-.665-.526 1.019 1.019 0 0 0-.83.173l-1.6 1.2a8 8 0 0 1-9.6 0l-1.6-1.2a1.01 1.01 0 0 0-.829-.173 1 1 0 0 0-.665.526L23 24.771l-.83-1.651A4.23 4.23 0 0 1 25.953 17a4.67 4.67 0 0 1 3.894 2.083l.314.471 1.663-1.11-.313-.47a6.662 6.662 0 0 0-3.772-2.725 8.226 8.226 0 0 1 7.634-.522ZM42 29h1a1 1 0 0 1 0 2h-1ZM29 40.537a9.989 9.989 0 0 0 6 0v2.047l-3 3-3-3ZM32 39a8.008 8.008 0 0 1-8-8v-3.765l1.358-2.717L26 25a10 10 0 0 0 12 0l.641-.481L40 27.235V31a8.007 8.007 0 0 1-8 8Zm-10-8h-1a1 1 0 1 1 0-2h1ZM9 51.04V52H3V39.665A2.991 2.991 0 0 1 4.846 36.9l9.538-3.974A1 1 0 0 0 15 32v-3.936a1.045 1.045 0 0 0-.58-.907 7.971 7.971 0 0 1-4.372-6.267 1 1 0 0 0-.993-.89H8a1 1 0 1 1 0-2h1a1 1 0 0 0 1-1.008l-.007-1a1 1 0 0 0-.105-.44L8.17 12.12a4.23 4.23 0 0 1 2.889-6.02 1.017 1.017 0 0 0 .391-.179l1.719-1.3a8.227 8.227 0 0 1 8.2-.89L24.163 5a6.08 6.08 0 0 1 3.062 7.939l-.162.375a9.557 9.557 0 0 0-1.093.706l-1.577 1.18a6.264 6.264 0 0 0-3.783 2.822 6.2 6.2 0 0 0-.23 5.99L21.875 27H21a3 3 0 0 0 0 6h1.2a10.021 10.021 0 0 0 4.8 6.645v2.593l-14.339 3.984A5.015 5.015 0 0 0 9 51.04ZM53 61h-6v-8h-2v8H19v-8h-2v8h-6v-9.96a3.01 3.01 0 0 1 2.2-2.892l14.5-4.03 3.588 3.588a1 1 0 0 0 1.415 0l3.587-3.588 14.51 4.03A3.01 3.01 0 0 1 53 51.04Zm2-9v-.96a5.015 5.015 0 0 0-3.661-4.818L37 42.238v-2.592A10.022 10.022 0 0 0 41.8 33H43a3 3 0 1 0 0-6h-.918l.98-2.271a8.08 8.08 0 0 0-4.07-10.552l-2.321-1.056-.5-1A4.23 4.23 0 0 1 39.059 6.1a1.017 1.017 0 0 0 .391-.179l1.719-1.3a8.227 8.227 0 0 1 8.2-.89L52.163 5a6.08 6.08 0 0 1 3.062 7.939L54.074 15.6a1.015 1.015 0 0 0-.081.4L54 17a1 1 0 0 0 1 1h1a1 1 0 0 1 0 2h-1.056a1 1 0 0 0-.993.89 7.963 7.963 0 0 1-4.4 6.278 1 1 0 0 0-.555.895V32a1 1 0 0 0 .615.922l9.542 3.978A2.992 2.992 0 0 1 61 39.666V52Z" style="" fill="#3f47db" data-original="#b3404a" class="" opacity="1"></path></g></svg>