<svg xmlns="http://www.w3.org/2000/svg" version="1.1" xmlns:xlink="http://www.w3.org/1999/xlink" xmlns:svgjs="http://svgjs.com/svgjs" width="512" height="512" x="0" y="0" viewBox="0 0 24 24" style="enable-background:new 0 0 512 512" xml:space="preserve" class=""><g><path d="M22 16a1 1 0 0 0-1 1v4H3v-4a1 1 0 0 0-2 0v5a1 1 0 0 0 1 1h20a1 1 0 0 0 1-1v-5a1 1 0 0 0-1-1z" fill="#1e49ff" data-original="#000000" class="" opacity="1"></path><path d="M11.293 17.707a1 1 0 0 0 1.414 0l6-6a1 1 0 0 0-1.414-1.414L13 14.586V2a1 1 0 0 0-2 0v12.586l-4.293-4.293a1 1 0 0 0-1.414 1.414z" fill="#1e49ff" data-original="#000000" class="" opacity="1"></path></g></svg>