<svg xmlns="http://www.w3.org/2000/svg" version="1.1" xmlns:xlink="http://www.w3.org/1999/xlink" xmlns:svgjs="http://svgjs.com/svgjs" width="512" height="512" x="0" y="0" viewBox="0 0 173.397 173.397" style="enable-background:new 0 0 512 512" xml:space="preserve" fill-rule="evenodd" class=""><g><path d="m12.53 120.209.002 23.758c0 .328.277.604.605.604h107.068a.612.612 0 0 0 .605-.604l.001-23.758a3.523 3.523 0 0 0-3.518-3.517H16.054a3.525 3.525 0 0 0-3.524 3.517zm103.071-6.904v-1.986a5.833 5.833 0 0 0-5.824-5.824h-86.19c-3.237.045-5.846 2.56-5.846 5.824v1.986zm-101.246.21.001-2.196c0-4.5 3.245-8.256 7.516-9.053V56.133c0-3.21 2.61-5.82 5.824-5.82 3.21 0 5.82 2.61 5.82 5.82l.001 13.765c5.302.173 14.053-1.96 17.105-3.64 10.95-6.036 21.148-6.036 32.101 0 3.049 1.68 11.804 3.813 17.103 3.64V56.133c0-3.21 2.614-5.82 5.823-5.82 3.211 0 5.821 2.61 5.821 5.82v46.132c4.274.796 7.517 4.553 7.517 9.054v2.197c2.991.757 5.21 3.47 5.21 6.693l.001 23.758a3.996 3.996 0 0 1-3.994 3.99h.002H13.138a3.996 3.996 0 0 1-3.994-3.99V120.21c0-3.223 2.22-5.936 5.21-6.693zM25.26 102.11h4.871v-4.882H25.26zm8.259 0h66.307l.001-28.828c-.2.005-.404.007-.61.007-5.846 0-14.4-2.007-18.13-4.064-9.968-5.496-18.861-5.496-28.83 0-3.862 2.128-12.9 4.208-18.739 4.057zm69.694 0h4.872v-4.882h-4.872zm4.872-8.269V56.133a2.437 2.437 0 0 0-4.872 0V93.84zm-82.825 0h4.871V56.133a2.437 2.437 0 0 0-4.871 0z" fill="#000000" data-original="#000000" class=""></path><path d="M113.403 157.623h-11.504a4 4 0 0 1-3.993-3.993v-7.366a1.693 1.693 0 1 1 3.386 0v7.365c0 .329.279.608.607.608h11.504a.613.613 0 0 0 .606-.607v-7.366a1.693 1.693 0 0 1 3.387 0l.001 7.365a3.997 3.997 0 0 1-3.994 3.994zM31.446 157.623H19.939a4 4 0 0 1-3.994-3.993l.001-7.366a1.693 1.693 0 1 1 3.386 0v7.365c0 .329.278.608.606.608h11.508a.612.612 0 0 0 .603-.607v-7.366a1.694 1.694 0 0 1 3.386 0l.002 7.365a3.997 3.997 0 0 1-3.991 3.994zM103.893 134.281c-3.362 0-6.643-1.034-9.815-2.032-3.06-.967-5.954-1.876-8.797-1.876-2.839 0-5.733.91-8.795 1.876-3.17.998-6.452 2.032-9.814 2.032-3.36 0-6.642-1.033-9.813-2.032-3.065-.967-5.959-1.876-8.798-1.876-2.843 0-5.736.91-8.798 1.876-3.17.998-6.452 2.032-9.814 2.032-3.36 0-6.642-1.033-9.814-2.032-3.062-.967-5.955-1.876-8.798-1.876a1.694 1.694 0 0 1 0-3.387c3.363 0 6.643 1.034 9.814 2.032 3.066.966 5.958 1.876 8.798 1.876s5.732-.91 8.798-1.876c3.173-.999 6.452-2.032 9.814-2.032 3.363 0 6.642 1.034 9.814 2.032 3.062.966 5.954 1.876 8.797 1.876 2.84 0 5.733-.91 8.795-1.876 3.175-.999 6.452-2.032 9.814-2.032 3.366 0 6.642 1.034 9.813 2.032 3.067.966 5.959 1.876 8.798 1.876 2.844 0 5.736-.91 8.798-1.876 3.172-.999 6.452-2.032 9.814-2.032a1.693 1.693 0 0 1 0 3.386c-2.839 0-5.732.91-8.798 1.877-3.171.998-6.452 2.032-9.813 2.032zM99.215 64.473c-5.845 0-14.4-2.01-18.129-4.067-9.969-5.496-18.862-5.496-28.831 0-4.32 2.38-15.123 4.702-20.672 3.905a1.69 1.69 0 0 1-1.436-1.916 1.69 1.69 0 0 1 1.916-1.436c4.982.717 15.207-1.672 18.559-3.516 10.95-6.04 21.148-6.04 32.1 0 3.349 1.844 13.579 4.233 18.556 3.517a1.69 1.69 0 0 1 1.916 1.435 1.688 1.688 0 0 1-1.432 1.916c-.761.109-1.623.162-2.547.162zM94.175 105.495a1.694 1.694 0 0 1-1.694-1.693v-4.886a3.197 3.197 0 0 0-3.193-3.192H77.789a3.198 3.198 0 0 0-3.197 3.192v4.886a1.694 1.694 0 0 1-3.387 0l.001-4.886c0-3.626 2.952-6.579 6.582-6.579h11.5a6.587 6.587 0 0 1 6.579 6.58l.001 4.885c0 .934-.76 1.693-1.693 1.693zM60.443 105.495a1.694 1.694 0 0 1-1.694-1.693v-4.886a3.196 3.196 0 0 0-3.192-3.192H44.058a3.2 3.2 0 0 0-3.197 3.192v4.886c0 .935-.755 1.693-1.693 1.693a1.694 1.694 0 0 1-1.694-1.693v-4.886c0-3.626 2.953-6.579 6.583-6.579h11.5a6.587 6.587 0 0 1 6.579 6.58l.001 4.885c0 .934-.76 1.693-1.694 1.693zM66.672 84.404c.185 0 .37.032.55.092l3.75 1.29-.066-3.964a1.695 1.695 0 0 1 .338-1.048l2.39-3.171-3.793-1.16a1.686 1.686 0 0 1-.893-.646l-2.276-3.25-2.278 3.25c-.215.306-.53.536-.89.645l-3.794 1.16 2.387 3.172c.226.3.346.67.342 1.048l-.07 3.965 3.754-1.291c.176-.06.362-.092.55-.092zm-6.038 5.464a1.68 1.68 0 0 1-.996-.324 1.706 1.706 0 0 1-.698-1.397l.103-5.803-3.492-4.632a1.699 1.699 0 0 1-.259-1.541 1.704 1.704 0 0 1 1.115-1.097l5.55-1.697 3.326-4.752a1.69 1.69 0 0 1 1.39-.723c.55 0 1.068.268 1.386.723l3.327 4.752 5.55 1.697a1.697 1.697 0 0 1 .856 2.639l-3.489 4.63.099 5.804a1.694 1.694 0 0 1-2.244 1.63l-5.485-1.888-5.488 1.888c-.178.06-.365.091-.551.091z" fill="#000000" data-original="#000000" class=""></path><path d="M109.778 61.968h-8.26a1.692 1.692 0 1 1 0-3.386h8.26a1.693 1.693 0 0 1 0 3.386zM31.824 61.968h-8.258a1.694 1.694 0 0 1-.001-3.386h8.259a1.693 1.693 0 0 1 0 3.386zM134.333 106.487a.555.555 0 0 0-.548.547v39.989c0 .296.25.547.547.547h25.989c.295 0 .545-.25.545-.547v-39.99a.554.554 0 0 0-.546-.546zm25.988 44.47h-25.988a3.94 3.94 0 0 1-3.935-3.934l.001-39.99a3.936 3.936 0 0 1 3.933-3.932h25.989a3.937 3.937 0 0 1 3.932 3.933v39.989a3.94 3.94 0 0 1-3.932 3.933z" fill="#000000" data-original="#000000" class=""></path><path d="M162.561 121.31h-30.468c-.94 0-1.694-.758-1.694-1.693a1.692 1.692 0 0 1 1.693-1.693h30.469c.938 0 1.692.758 1.692 1.693a1.69 1.69 0 0 1-1.692 1.693zM162.561 136.133h-30.468c-.94 0-1.694-.758-1.694-1.693a1.69 1.69 0 0 1 1.693-1.693h30.469c.938 0 1.692.755 1.692 1.693a1.69 1.69 0 0 1-1.692 1.693zM149.568 113.898h-4.483a1.694 1.694 0 0 1-.001-3.386h4.484a1.694 1.694 0 0 1 0 3.386zM143.74 106.487a1.694 1.694 0 0 1-1.694-1.693l.002-11.493a1.692 1.692 0 1 1 3.385 0v11.493c0 .935-.758 1.693-1.693 1.693zm7.172 0a1.694 1.694 0 0 1-1.694-1.693V93.301a1.693 1.693 0 0 1 3.387 0l.001 11.493c0 .935-.76 1.693-1.694 1.693z" fill="#000000" data-original="#000000" class=""></path><path d="M136.029 91.607h22.592l-4.565-19.017h-13.462zm24.74 3.387h-26.885a1.696 1.696 0 0 1-1.648-2.088l5.377-22.404a1.694 1.694 0 0 1 1.647-1.298h16.133c.784 0 1.463.536 1.647 1.298l5.377 22.404a1.7 1.7 0 0 1-.319 1.442c-.32.41-.811.646-1.329.646zM141.501 157.623h-7.167a1.695 1.695 0 0 1-1.695-1.693l.001-6.668a1.69 1.69 0 0 1 1.692-1.693 1.69 1.69 0 0 1 1.694 1.694v4.973h3.781v-4.974c0-.938.759-1.693 1.694-1.693a1.69 1.69 0 0 1 1.693 1.694v6.667c0 .934-.759 1.693-1.693 1.693zM160.321 157.623h-7.169a1.694 1.694 0 0 1-1.694-1.693v-6.668c0-.938.759-1.693 1.694-1.693a1.69 1.69 0 0 1 1.693 1.694l.001 4.973h3.781v-4.974c0-.938.758-1.693 1.693-1.693a1.69 1.69 0 0 1 1.693 1.694v6.667c0 .934-.758 1.693-1.692 1.693zM149.568 128.721h-4.483a1.694 1.694 0 0 1-.001-3.386h4.484a1.694 1.694 0 0 1 0 3.386zM45.582 19.16a.101.101 0 0 0-.097.096l.002 24.361c0 .05.044.096.094.096h42.18c.05 0 .095-.046.095-.095V19.256a.1.1 0 0 0-.095-.095zm42.18 27.94h-42.18a3.488 3.488 0 0 1-3.483-3.482V19.256a3.484 3.484 0 0 1 3.482-3.482h42.18c1.923 0 3.481 1.56 3.481 3.482v24.361c0 1.92-1.559 3.483-3.48 3.482z" fill="#000000" data-original="#000000" class=""></path><path d="M47.487 47.1a1.691 1.691 0 0 1-1.48-2.516l8.682-15.6a1.694 1.694 0 0 1 2.96 0l7.377 13.258a1.694 1.694 0 0 1-2.96 1.647l-5.898-10.6-7.2 12.943c-.31.554-.886.868-1.481.867z" fill="#000000" data-original="#000000" class=""></path><path d="M62.242 47.1c-.278 0-.561-.067-.822-.212a1.697 1.697 0 0 1-.656-2.304L72.57 23.37a1.692 1.692 0 0 1 2.959 0l11.805 21.215a1.693 1.693 0 1 1-2.96 1.648l-10.326-18.56-10.324 18.56a1.698 1.698 0 0 1-1.483.867z" fill="#000000" data-original="#000000" class=""></path><path fill="#ff9801" d="M85.28 130.373c-2.838 0-5.732.91-8.794 1.877-3.17.998-6.452 2.032-9.814 2.032-3.36 0-6.642-1.034-9.813-2.032-3.065-.967-5.959-1.877-8.798-1.877-2.842 0-5.736.91-8.798 1.877-3.17.998-6.452 2.032-9.814 2.032-3.36 0-6.643-1.034-9.814-2.032-2.456-.776-4.804-1.515-7.104-1.777v13.495c0 .328.278.604.606.604h107.068a.612.612 0 0 0 .606-.604v-13.495c-2.298.262-4.646 1.001-7.105 1.777-3.171.998-6.452 2.032-9.813 2.031-3.362 0-6.643-1.033-9.815-2.031-3.06-.967-5.954-1.877-8.797-1.877z" data-original="#ff9801"></path><path fill="#ff9801" d="M75.467 129.018c3.175-.999 6.452-2.032 9.814-2.032 3.366 0 6.642 1.034 9.813 2.032 3.067.966 5.959 1.877 8.798 1.877 2.844 0 5.736-.91 8.798-1.877 2.638-.83 5.35-1.685 8.121-1.949v-6.86a3.523 3.523 0 0 0-3.517-3.517H16.054a3.525 3.525 0 0 0-3.524 3.517v6.86c2.772.264 5.484 1.119 8.12 1.949 3.066.966 5.959 1.877 8.798 1.877 2.84 0 5.733-.91 8.798-1.877 3.173-.999 6.453-2.032 9.814-2.032 3.363 0 6.643 1.034 9.814 2.032 3.063.966 5.955 1.877 8.798 1.877 2.84 0 5.732-.91 8.794-1.877z" data-original="#ff9801"></path><path fill="#ffaf50" d="M32.049 153.63v-5.673H19.332v5.673c0 .328.278.607.606.607h11.508a.612.612 0 0 0 .603-.607zM101.293 147.958v5.672c0 .329.279.607.607.607h11.504a.613.613 0 0 0 .606-.606v-5.673z" data-original="#ffaf50"></path><path fill="#17ace8" d="M17.741 113.306h97.86v-1.986a5.833 5.833 0 0 0-5.825-5.824h-86.19c-3.236.044-5.845 2.559-5.845 5.824z" data-original="#17ace8" class=""></path><path fill="#ff9801" d="M44.057 92.338h11.5a6.587 6.587 0 0 1 6.579 6.579v3.192h9.07v-3.192c0-3.627 2.952-6.58 6.582-6.58h11.5a6.587 6.587 0 0 1 6.579 6.58v3.192h3.958V73.28c-.2.005-.403.007-.61.007-5.845 0-14.4-2.007-18.129-4.063-9.969-5.496-18.862-5.496-28.831 0-3.861 2.128-12.9 4.208-18.738 4.057v28.827h3.958v-3.192c0-3.627 2.952-6.58 6.582-6.58zm14.883-4.191.103-5.803-3.492-4.632a1.7 1.7 0 0 1-.259-1.541c.173-.526.59-.935 1.115-1.097l5.549-1.697 3.328-4.752a1.69 1.69 0 0 1 1.388-.723c.552 0 1.07.268 1.387.723l3.327 4.752 5.55 1.697a1.697 1.697 0 0 1 .856 2.639l-3.489 4.63.099 5.804c.01.55-.25 1.072-.7 1.397a1.694 1.694 0 0 1-1.544.233l-5.486-1.888-5.487 1.888c-.178.06-.365.091-.551.091a1.68 1.68 0 0 1-.996-.324 1.706 1.706 0 0 1-.698-1.397z" data-original="#ff9801"></path><path fill="#ffe600" d="m62.44 81.822-.071 3.965 3.754-1.291a1.716 1.716 0 0 1 1.1 0l3.75 1.29-.067-3.964a1.696 1.696 0 0 1 .338-1.048l2.39-3.171-3.793-1.16a1.687 1.687 0 0 1-.893-.646l-2.276-3.25-2.278 3.25c-.215.306-.53.536-.89.645l-3.794 1.16 2.388 3.172c.225.3.345.67.341 1.048z" data-original="#ffe600"></path><path fill="#93f9e5" d="M55.557 95.724H44.058a3.2 3.2 0 0 0-3.197 3.193v3.192H58.75v-3.192a3.196 3.196 0 0 0-3.193-3.193zM77.79 95.724a3.198 3.198 0 0 0-3.198 3.193v3.192h17.889v-3.192a3.197 3.197 0 0 0-3.193-3.193z" data-original="#93f9e5"></path><path fill="#ffe600" d="M82.723 66.258c3.048 1.68 11.803 3.813 17.103 3.64v-5.433c-.2.005-.404.008-.611.008-5.845 0-14.4-2.01-18.129-4.067-9.969-5.496-18.862-5.496-28.831 0-3.862 2.128-12.9 4.208-18.739 4.057v5.435c5.302.173 14.054-1.96 17.106-3.64 10.95-6.036 21.148-6.036 32.1 0zM103.212 62.67v31.17h4.872V61.968h-4.872V62.67z" data-original="#ffe600"></path><path fill="#ff9801" d="M103.211 58.582h4.872v-2.448a2.437 2.437 0 0 0-4.872 0zM30.13 58.582v-2.448a2.437 2.437 0 0 0-4.872 0v2.448z" data-original="#ff9801"></path><path fill="#ffe600" d="M30.13 61.968h-4.872V93.84h4.872V62.612z" data-original="#ffe600"></path><path fill="#ff9801" d="M30.13 97.227h-4.872v4.882h4.872zM103.212 97.227v4.882h4.871v-4.882z" data-original="#ff9801"></path><path fill="#32d736" d="M65.126 43.713h17.847l-8.924-16.04zM61.608 43.067l-5.44-9.778-5.799 10.424h10.88z" data-original="#32d736"></path><path fill="#17ace8" d="m57.649 28.985 5.898 10.599 9.024-16.215a1.691 1.691 0 0 1 2.96 0L86.85 43.713h.911c.05 0 .095-.046.095-.095V19.256a.1.1 0 0 0-.095-.095H45.582a.101.101 0 0 0-.096.095v24.361c0 .05.045.096.095.096h.912l8.196-14.728a1.694 1.694 0 0 1 2.96 0z" data-original="#17ace8" class=""></path><path fill="#ffe600" d="m140.594 72.59-4.565 19.017h22.592l-4.565-19.017z" data-original="#ffe600"></path><path fill="#1f8680" d="M145.434 94.994v8.106h3.785v-8.106z" data-original="#1f8680"></path><g fill="#2fccc4"><path d="M134.333 106.487a.555.555 0 0 0-.548.547v10.89h27.082v-10.89a.554.554 0 0 0-.547-.547h-25.987zm15.235 4.025a1.694 1.694 0 0 1 0 3.387h-4.483a1.694 1.694 0 0 1-.002-3.387zM160.867 121.31h-27.082v11.437h27.082zm-9.606 5.719c0 .935-.758 1.693-1.693 1.693h-4.483a1.694 1.694 0 0 1-.001-3.387h4.484c.935 0 1.693.759 1.693 1.694zM160.321 147.57c.296 0 .546-.25.546-.547v-10.89h-27.081v10.89c0 .296.25.547.546.547H160.322z" fill="#2fccc4" data-original="#2fccc4"></path></g><path fill="#1f8680" d="M139.807 154.237v-3.281h-3.782v3.281zM154.846 150.956v3.281h3.781v-3.281z" data-original="#1f8680"></path></g></svg>