<svg xmlns="http://www.w3.org/2000/svg" version="1.1" xmlns:xlink="http://www.w3.org/1999/xlink" xmlns:svgjs="http://svgjs.com/svgjs" width="512" height="512" x="0" y="0" viewBox="0 0 497 497" style="enable-background:new 0 0 512 512" xml:space="preserve" class=""><g><path fill="#cedbe0" d="M48.488 157a7.499 7.499 0 0 1-7.5-7.5V53.687c0-4.143 3.357-7.5 7.5-7.5s7.5 3.357 7.5 7.5V149.5c0 4.143-3.357 7.5-7.5 7.5zM248.5 125.173a7.499 7.499 0 0 1-7.5-7.5v-63.94c0-4.143 3.357-7.5 7.5-7.5s7.5 3.357 7.5 7.5v63.939a7.5 7.5 0 0 1-7.5 7.501zM448.512 155.162a7.499 7.499 0 0 1-7.5-7.5V53.733c0-4.143 3.357-7.5 7.5-7.5s7.5 3.357 7.5 7.5v93.929a7.5 7.5 0 0 1-7.5 7.5z" data-original="#cedbe0"></path><path fill="#a5fffa" d="M146.396 243.998H40.5L30.365 294.47 0 497h57.5l122.137-217.129z" data-original="#a5fffa"></path><path fill="#ff73a6" d="M317.363 279.871 306.5 260.559l-58-77.267-58 77.267-10.863 19.312 68.863 74.316z" data-original="#ff73a6"></path><path fill="#fc3f84" d="M179.637 279.871 57.5 497h58.666L248.5 354.187z" data-original="#fc3f84"></path><path fill="#fff1b5" d="m466.635 294.47-116.031-50.472-33.241 35.873L439.5 497H497z" data-original="#fff1b5"></path><path fill="#fc3f84" d="M248.5 354.187 380.834 497H439.5L317.363 279.871z" data-original="#fc3f84"></path><path fill="#c23166" d="M116.166 497h264.668L248.5 354.187z" data-original="#c23166"></path><path fill="#cedbe0" d="M0 0h497v35.225H0z" data-original="#cedbe0"></path><path fill="#c0ccd1" d="M457 0h40v35.225h-40z" data-original="#c0ccd1"></path><path fill="#1c337a" d="M248.5 73.733c-16.345 0-29.595-13.25-29.595-29.595v-8.925h59.189v8.925c.001 16.345-13.249 29.595-29.594 29.595zM448.512 73.733c-16.345 0-29.595-13.25-29.595-29.595v-8.925h59.189v8.925c0 16.345-13.25 29.595-29.594 29.595zM297.374 213.298v-66.751c0-26.992-21.882-48.874-48.874-48.874s-48.874 21.882-48.874 48.874v65.811z" data-original="#1c337a" class=""></path><path fill="#16275e" d="M248.5 97.673a48.683 48.683 0 0 0-20 4.282c17.017 7.644 28.874 24.728 28.874 44.592v66.366l40 .384v-66.751c0-26.991-21.882-48.873-48.874-48.873z" data-original="#16275e"></path><path fill="#2f4ca3" d="M185.233 213.55c0-16.711 28.325-30.258 63.267-30.258s63.267 13.547 63.267 30.258v32.006c0-16.711-28.325-30.258-63.267-30.258s-63.267 13.547-63.267 30.258z" data-original="#2f4ca3"></path><ellipse cx="248.5" cy="245.362" fill="#fc3f84" rx="63.267" ry="30.258" data-original="#fc3f84"></ellipse><path fill="#1c337a" d="m116.827 212.578-23.123-53.157c-10.767-24.752-39.561-36.089-64.313-25.322C4.639 144.866-6.698 173.66 4.069 198.412l22.748 52.296z" data-original="#1c337a" class=""></path><path fill="#2f4ca3" d="M17.598 265.594c-6.666-15.324 13.905-39.045 45.946-52.983s63.419-12.814 70.085 2.51l12.767 29.349c-6.666-15.324-38.044-16.448-70.085-2.51s-52.612 37.659-45.946 52.983z" data-original="#2f4ca3"></path><ellipse cx="88.303" cy="269.53" fill="#3aeee6" rx="63.267" ry="30.258" transform="rotate(-23.5 88.294 269.452)" data-original="#3aeee6"></ellipse><path fill="#1c337a" d="m377.868 217.876 25.427-58.455c10.767-24.752 39.561-36.089 64.313-25.322 24.752 10.767 36.089 39.561 25.322 64.313l-25.053 57.593z" data-original="#1c337a" class=""></path><path fill="#16275e" d="M467.609 134.099c-13.13-5.711-27.397-5.202-39.507.229 24.405 10.935 35.524 39.499 24.83 64.084l-18.829 43.285 33.776 14.308 25.053-57.593c10.766-24.752-.571-53.546-25.323-64.313z" data-original="#16275e"></path><path fill="#2f4ca3" d="M479.402 265.594c6.666-15.324-13.905-39.045-45.946-52.983s-63.419-12.814-70.085 2.51l-12.767 29.349c6.666-15.324 38.044-16.448 70.085-2.51s52.612 37.659 45.946 52.983z" data-original="#2f4ca3"></path><ellipse cx="408.697" cy="269.53" fill="#fed73a" rx="30.258" ry="63.267" transform="rotate(-66.48 408.743 269.51)" data-original="#fed73a"></ellipse><path fill="#1c337a" d="M48.488 73.687c16.345 0 29.595-13.25 29.595-29.595v-8.925H18.894v8.925c0 16.345 13.25 29.595 29.594 29.595z" data-original="#1c337a" class=""></path></g></svg>