<svg xmlns="http://www.w3.org/2000/svg" version="1.1" xmlns:xlink="http://www.w3.org/1999/xlink" xmlns:svgjs="http://svgjs.com/svgjs" width="512" height="512" x="0" y="0" viewBox="0 0 512 512" style="enable-background:new 0 0 512 512" xml:space="preserve" class=""><g><path d="M504.8 469.4 358.4 323c27.3-35 42-78.2 42-122.5C400.4 90.1 310.6.3 200.2.3S0 90.1 0 200.5s89.8 200.2 200.2 200.2c44.7 0 88.1-14.9 123.2-42.5l146.3 146.3c10.1 9.3 25.7 8.6 35-1.5 8.7-9.5 8.7-24.1.1-33.6zM49.5 200.5c0-83.1 67.6-150.6 150.6-150.6s150.6 67.6 150.6 150.6-67.6 150.6-150.6 150.6S49.5 283.5 49.5 200.5z" fill="#000000" data-original="#000000" class=""></path></g></svg>