<svg xmlns="http://www.w3.org/2000/svg" version="1.1" xmlns:xlink="http://www.w3.org/1999/xlink" xmlns:svgjs="http://svgjs.com/svgjs" width="512" height="512" x="0" y="0" viewBox="0 0 512 512" style="enable-background:new 0 0 512 512" xml:space="preserve" class=""><g><path fill="#dd646e" d="M28.599 224.514c0 8.816 75.286 40.041 75.286 40.041v47.559l9 43.462-9 62.953v64.565c0 5.701 1.991 19.614 10.322 19.614h283.584l1.323-41.409 9-25.356V264.555S483.4 238.18 483.4 224.514l-23.265-68.356-64.098-82.799-54.557-23.084-170.968.002-69.074 29.227-57.725 100.603z" data-original="#dd646e" class=""></path><path fill="#eef1f3" d="M326.202 377.823h.006c6.165 19.088 27.948 16.118 27.948 16.118s9.512-19.821-6.764-31.546c20.059.07 24.003-21.559 24.003-21.559s-15.886-15.198-32.087-3.37c6.254-19.059-13.103-29.482-13.103-29.482s-19.357 10.423-13.103 29.482c-16.201-11.828-32.087 3.37-32.087 3.37s3.944 21.628 24.003 21.559c-16.275 11.725-6.764 31.546-6.764 31.546s21.783 2.97 27.948-16.118h.006zM186.575 243.163h.006c6.165 19.088 27.948 16.118 27.948 16.118s9.511-19.821-6.764-31.546c20.059.07 24.003-21.559 24.003-21.559s-15.886-15.198-32.087-3.37c6.254-19.059-13.103-29.482-13.103-29.482s-19.357 10.423-13.103 29.482c-16.201-11.828-32.087 3.37-32.087 3.37s3.944 21.628 24.003 21.559c-16.276 11.725-6.764 31.546-6.764 31.546s21.784 2.97 27.948-16.118h.006z" data-original="#eef1f3"></path><path fill="#db4955" d="M306.467 493.417h-192.26c-5.701 0-10.322-4.622-10.322-10.323v18.581c0 5.701 4.621 10.323 10.322 10.323h36.306l32.129-9 32.129 9h33.486l7.742-9 7.742 9h59.402l4.848-9.581z" data-original="#db4955"></path><path fill="#eef1f3" d="M397.792 502.708c5.692 0 10.306-13.898 10.321-19.587v-47.178c-8-13.925-21.636-21.275-21.636-21.275s-36.831 19.84-24.929 56.103c-30.833-22.503-61.068 6.421-61.068 6.421s1.39 7.581 5.987 16.225z" data-original="#eef1f3"></path><path fill="#dee7ed" d="M397.792 493.417h-91.325c3.47 6.523 8.765 13.65 16.681 18.583h74.643c5.698 0 10.323-4.624 10.323-10.323v-18.556c-.015 5.689-4.63 10.296-10.322 10.296z" data-original="#dee7ed"></path><g fill="#eef1f3"><path d="M156.573 373.027c25.032 18.034 10.395 48.526 10.395 48.526s-33.497 4.563-42.983-24.795h-.01c-3.933 12.181-11.995 18.519-20.088 21.77V312.114c5.409-14.865 20.098-22.772 20.098-22.772s29.77 16.031 20.15 45.347c24.919-18.188 49.352 5.182 49.352 5.182s-6.07 33.27-36.914 33.156zM111.99 132.026c24.681 17.786 10.261 47.845 10.261 47.845s-33.032 4.501-42.384-24.444h-.01c-6.792 21.037-26.106 24.413-36.139 24.681l28.8-84.614a10.281 10.281 0 0 1 5.75-6.183l23.174-9.806c.475 4.439.052 9.352-1.703 14.72 24.568-17.93 48.65 5.11 48.65 5.11s-5.979 32.804-36.399 32.691zM433.738 89.31l-24.424-10.334-.003.002c-.01-.01-.021-.01-.031-.01l-.024-.017-13.206-5.588-.003-.001c-.004-.004-.006-.003-.009-.004l-.015-.007c-16.587-2.589-30.128 10.375-30.128 10.375s5.368 29.409 32.65 29.316c-22.142 15.948-9.208 42.901-9.208 42.901s29.636 4.046 38.018-21.915h.01c6.173 19.117 23.856 21.956 32.764 22.131l-.002-.027-20.64-60.642a10.32 10.32 0 0 0-5.749-6.18z" fill="#eef1f3" data-original="#eef1f3"></path></g><path fill="#9b3050" d="M313.425 0H198.568l-6.429 28.69 19.019 9.88 44.863 20.479 44.815-20.479 18.921-8.061z" data-original="#9b3050"></path><path fill="#b3495d" d="m366.868 260.583-30.057 18.722a5.266 5.266 0 0 1-5.567 0l-30.057-18.722a5.265 5.265 0 0 1-2.481-4.469v-48.957a5.265 5.265 0 0 1 5.265-5.265h60.114a5.265 5.265 0 0 1 5.265 5.265v48.957a5.267 5.267 0 0 1-2.482 4.469z" data-original="#b3495d"></path><path fill="#365e7d" d="M211.158 38.57h89.678l-12.078 64.576-32.761 72.799-32.498-71.99z" data-original="#365e7d"></path><path fill="#b3495d" d="m313.425 0-57.428 175.944-.001-.001L198.569 0l-28.055 50.277 2.126 39.132a5 5 0 0 0 5.293 4.72L196.668 93c3.544-.214 6.176 3.232 5.036 6.595l-6.341 18.715a5 5 0 0 0 1.426 5.352l51.475 45.454-.006-.002v324.302l7.738 9 7.745-9V169.105l51.462-45.442a5 5 0 0 0 1.426-5.352l-6.341-18.715c-1.139-3.363 1.492-6.809 5.036-6.595l18.735 1.129a5 5 0 0 0 5.293-4.72l2.126-39.132zM256 175.948l-.003-.004.012-.01z" data-original="#b3495d"></path><path fill="#9b3050" d="M248.258 493.417h15.484V512h-15.484z" data-original="#9b3050"></path><path fill="#db4955" d="m88.31 260.387 7.742-7.509-7.742-11.072-55.258-14.787a10.265 10.265 0 0 1-4.453-2.506l-2.651 7.788c-1.924 5.653 1.335 11.754 7.103 13.298z" data-original="#db4955"></path><path fill="#b3495d" d="M103.794 198.608a7.742 7.742 0 1 0-15.484 0v43.198l7.742 11.072 7.742-6.928z" data-original="#b3495d"></path><path fill="#9b3050" d="m103.794 245.95-15.484-4.144v18.581l15.575 4.168z" data-original="#9b3050"></path><path fill="#db4955" d="m486.052 232.302-2.651-7.789a10.256 10.256 0 0 1-4.452 2.506l-55.265 14.787-7.742 10.313 7.742 8.267-.002.002 55.267-14.789c5.767-1.543 9.027-7.644 7.103-13.297z" data-original="#db4955"></path><path fill="#eef1f3" d="M232.603 493.417c1.027-2.811 1.389-4.777 1.389-4.777s-18.054-17.27-36.459-3.83c7.102-21.657-14.885-33.497-14.885-33.497s-21.997 11.84-14.896 33.497c-18.405-13.44-36.459 3.83-36.459 3.83s.362 1.966 1.389 4.777l49.961 9z" data-original="#eef1f3"></path><path fill="#dee7ed" d="M132.682 493.417c2.132 5.837 7.144 15.337 17.832 18.583h64.258c10.687-3.246 15.699-12.746 17.831-18.583z" data-original="#dee7ed"></path><path fill="#b3495d" d="M423.684 198.608a7.742 7.742 0 1 0-15.484 0v47.342l7.742 6.17 7.742-10.313z" data-original="#b3495d"></path><path fill="#9b3050" d="m408.2 245.95 15.484-4.144v18.581l-15.569 4.168z" data-original="#9b3050"></path></g></svg>