<svg xmlns="http://www.w3.org/2000/svg" version="1.1" xmlns:xlink="http://www.w3.org/1999/xlink" xmlns:svgjs="http://svgjs.com/svgjs" width="512" height="512" x="0" y="0" viewBox="0 0 512 512" style="enable-background:new 0 0 512 512" xml:space="preserve"><g><path fill="#90bae1" d="M35.309 35.309H512v264.828H35.309zm0 0" data-original="#90bae1"></path><path fill="#35495e" d="M277.805 326.621H220.69v88.277h105.93v-88.277h-57.113zm0 0" data-original="#35495e"></path><path fill="#41767f" d="M512 17.656v308.965c-.027 9.738-7.918 17.625-17.656 17.656H35.488c-.09-.797-.18-16.773-.18-17.656V17.656C35.34 7.918 43.228.027 52.966 0h441.379c9.738.027 17.629 7.918 17.656 17.656zm0 0" data-original="#41767f"></path><path fill="#90bae1" d="M512 35.309v264.828H35.309v-27.895c101.168-7.062 323.886-45.11 457.8-236.933zm0 0" data-original="#90bae1"></path><path fill="#b0d3f0" d="M493.11 35.309C359.194 227.133 136.476 265.179 35.308 272.242V35.31zm0 0" data-original="#b0d3f0"></path><path fill="#2c3e50" d="M238.344 35.309a8.849 8.849 0 0 1-8.828 8.828H35.309V26.484h194.207c4.87.012 8.816 3.957 8.828 8.825zM512 26.484v17.653H317.793a8.826 8.826 0 0 1-8.828-8.828c0-4.875 3.953-8.825 8.828-8.825zM282.484 44.137h-17.656A8.826 8.826 0 0 1 256 35.309c0-4.875 3.953-8.825 8.828-8.825h17.656a8.822 8.822 0 0 1 8.825 8.825 8.823 8.823 0 0 1-8.825 8.828zm0 0" data-original="#2c3e50"></path><path fill="#41767f" d="M158.898 432.55h229.516v-17.652c0-9.753-7.906-17.656-17.656-17.656h-211.86zm0 0" data-original="#41767f"></path><path fill="#35495e" d="M8.828 476.691A8.829 8.829 0 0 1 0 467.863V158.898c.027-9.742 7.918-17.628 17.656-17.656h123.586c9.738.028 17.625 7.914 17.656 17.656v308.965a8.829 8.829 0 0 1-8.828 8.828zm0 0" data-original="#35495e"></path><path fill="#ff5364" d="M141.242 69.953a8.814 8.814 0 0 1-6.27-2.617 78.035 78.035 0 0 0-111.042 0 8.824 8.824 0 0 1-14.903-3.828 8.822 8.822 0 0 1 2.36-8.594 95.692 95.692 0 0 1 136.129 0 8.826 8.826 0 0 1-6.274 15.04zm0 0" data-original="#ff5364"></path><path fill="#ff5364" d="M116.523 94.922a8.781 8.781 0 0 1-6.27-2.617 43.291 43.291 0 0 0-61.613 0 8.825 8.825 0 0 1-14.886-3.836 8.826 8.826 0 0 1 2.344-8.586 60.949 60.949 0 0 1 86.7 0 8.84 8.84 0 0 1 1.874 9.61 8.828 8.828 0 0 1-8.145 5.429zm0 0" data-original="#ff5364"></path><path fill="#ff5364" d="M91.809 119.887a8.794 8.794 0 0 1-6.27-2.614 8.726 8.726 0 0 0-12.172 0 8.83 8.83 0 0 1-12.547-12.425c10.39-10.043 26.871-10.043 37.262 0a8.826 8.826 0 0 1 1.875 9.609 8.822 8.822 0 0 1-8.144 5.43zm0 0" data-original="#ff5364"></path><g fill="#2c2f38"><path d="M79.45 185.379a9.312 9.312 0 0 1-6.27-2.559 10.175 10.175 0 0 1-1.852-2.914 8.77 8.77 0 0 1-.707-3.355 8.766 8.766 0 0 1 10.594-8.649 5.64 5.64 0 0 1 1.59.528c.562.195 1.093.46 1.586.797.464.324.906.68 1.324 1.058a9.28 9.28 0 0 1 2.562 6.266 8.844 8.844 0 0 1-.707 3.355 10.272 10.272 0 0 1-1.855 2.914c-.442.352-.883.707-1.324 1.059a6.695 6.695 0 0 1-1.586.793 5.775 5.775 0 0 1-1.59.531c-.586.102-1.176.16-1.766.176zM44.137 353.105a9.28 9.28 0 0 1-6.266-2.562 10.187 10.187 0 0 1-1.855-2.914 8.825 8.825 0 0 1-.707-3.352 8.778 8.778 0 0 1 3.222-6.867 8.76 8.76 0 0 1 7.371-1.785c.555.098 1.09.273 1.59.531a6.577 6.577 0 0 1 1.59.793c.461.328.902.68 1.324 1.059a9.304 9.304 0 0 1 2.559 6.27 8.751 8.751 0 0 1-.707 3.35 10.26 10.26 0 0 1-1.852 2.915c-.441.355-.883.707-1.324 1.059a6.735 6.735 0 0 1-1.59.796c-.5.25-1.035.43-1.59.528-.582.101-1.172.16-1.765.18zM79.45 353.105a9.297 9.297 0 0 1-6.27-2.562 10.175 10.175 0 0 1-1.852-2.914 8.751 8.751 0 0 1-.707-3.352 8.754 8.754 0 0 1 3.223-6.867 8.756 8.756 0 0 1 7.37-1.785c.552.098 1.087.273 1.59.531a6.55 6.55 0 0 1 1.587.793c.464.328.906.68 1.324 1.059a9.29 9.29 0 0 1 2.562 6.27 8.825 8.825 0 0 1-.707 3.35 10.272 10.272 0 0 1-1.855 2.915c-.442.355-.883.707-1.324 1.059a6.708 6.708 0 0 1-1.586.796c-.504.25-1.04.43-1.59.528-.586.101-1.176.16-1.766.18zM114.758 353.105a9.28 9.28 0 0 1-6.266-2.562 10.187 10.187 0 0 1-1.855-2.914 8.825 8.825 0 0 1-.707-3.352 8.766 8.766 0 0 1 3.222-6.867 8.756 8.756 0 0 1 7.371-1.785c.555.098 1.09.273 1.59.531a6.577 6.577 0 0 1 1.59.793c.461.328.902.68 1.324 1.059a9.304 9.304 0 0 1 2.559 6.27 8.752 8.752 0 0 1-.707 3.35 10.26 10.26 0 0 1-1.852 2.915c-.441.355-.882.707-1.324 1.059a6.735 6.735 0 0 1-1.59.796c-.5.25-1.035.43-1.59.528-.582.101-1.171.16-1.765.18zM44.137 388.414a9.295 9.295 0 0 1-6.266-2.559 10.187 10.187 0 0 1-1.855-2.914 8.86 8.86 0 0 1-.707-3.355 8.784 8.784 0 0 1 3.222-6.867 8.786 8.786 0 0 1 7.371-1.785 5.69 5.69 0 0 1 1.59.53c.563.196 1.098.462 1.59.794.461.328.902.683 1.324 1.062a9.295 9.295 0 0 1 2.559 6.266 8.786 8.786 0 0 1-.707 3.355 10.314 10.314 0 0 1-1.852 2.914c-.441.352-.883.704-1.324 1.06a6.721 6.721 0 0 1-1.59.792 5.69 5.69 0 0 1-1.59.531c-.582.102-1.172.16-1.765.176zM79.45 388.414a9.312 9.312 0 0 1-6.27-2.559 10.175 10.175 0 0 1-1.852-2.914 8.786 8.786 0 0 1-.707-3.355 8.76 8.76 0 0 1 3.223-6.867 8.783 8.783 0 0 1 7.37-1.785c.552.097 1.087.277 1.59.53.563.196 1.094.462 1.587.794.464.328.906.683 1.324 1.062a9.28 9.28 0 0 1 2.562 6.266 8.86 8.86 0 0 1-.707 3.355 10.326 10.326 0 0 1-1.855 2.914c-.442.352-.883.704-1.324 1.06a6.695 6.695 0 0 1-1.586.792 5.775 5.775 0 0 1-1.59.531c-.586.102-1.176.16-1.766.176zM114.758 388.414a9.295 9.295 0 0 1-6.266-2.559 10.187 10.187 0 0 1-1.855-2.914 8.86 8.86 0 0 1-.707-3.355 8.772 8.772 0 0 1 10.593-8.652 5.69 5.69 0 0 1 1.59.53c.563.196 1.098.462 1.59.794.461.328.902.683 1.324 1.062a9.295 9.295 0 0 1 2.559 6.266 8.786 8.786 0 0 1-.707 3.355 10.314 10.314 0 0 1-1.852 2.914c-.441.352-.882.704-1.324 1.06a6.721 6.721 0 0 1-1.59.792 5.69 5.69 0 0 1-1.59.531c-.582.102-1.171.16-1.765.176zM123.586 256c0 24.375-19.762 44.137-44.137 44.137-24.379 0-44.14-19.762-44.14-44.137s19.761-44.137 44.14-44.137c24.375 0 44.137 19.762 44.137 44.137zm0 0" fill="#2c2f38" data-original="#2c2f38"></path></g><path fill="#2c3e50" d="M158.898 459.035a167.137 167.137 0 0 1-79.449 17.656A167.116 167.116 0 0 1 0 459.035v14.168a8.73 8.73 0 0 0 2.52 6.18A110.967 110.967 0 0 0 79.45 512a110.963 110.963 0 0 0 76.929-32.613 8.73 8.73 0 0 0 2.52-6.18zm0 0" data-original="#2c3e50"></path></g></svg>